<svg width="16" height="16" viewBox="0 0 16 16" fill="none" xmlns="http://www.w3.org/2000/svg">
<path fill-rule="evenodd" clip-rule="evenodd" d="M4.5 2C3.83696 2 3.20107 2.26339 2.73223 2.73223C2.26339 3.20107 2 3.83696 2 4.5C2 5.16304 2.26339 5.79893 2.73223 6.26777C3.20107 6.73661 3.83696 7 4.5 7H5.5C5.63261 7 5.75979 7.05268 5.85355 7.14645C5.94732 7.24021 6 7.36739 6 7.5V8.5C6 8.63261 5.94732 8.75979 5.85355 8.85355C5.75979 8.94732 5.63261 9 5.5 9H4.5C3.83696 9 3.20107 9.26339 2.73223 9.73223C2.26339 10.2011 2 10.837 2 11.5C2 12.163 2.26339 12.7989 2.73223 13.2678C3.20107 13.7366 3.83696 14 4.5 14C4.8283 14 5.15339 13.9353 5.45671 13.8097C5.76002 13.6841 6.03562 13.4999 6.26777 13.2678C6.49991 13.0356 6.68406 12.76 6.8097 12.4567C6.93534 12.1534 7 11.8283 7 11.5V10.5C7 10.3674 7.05268 10.2402 7.14645 10.1464C7.24021 10.0527 7.36739 10 7.5 10H8.5C8.63261 10 8.75979 10.0527 8.85355 10.1464C8.94732 10.2402 9 10.3674 9 10.5V11.5C9 12.163 9.26339 12.7989 9.73223 13.2678C10.2011 13.7366 10.837 14 11.5 14C12.163 14 12.7989 13.7366 13.2678 13.2678C13.7366 12.7989 14 12.163 14 11.5C14 10.837 13.7366 10.2011 13.2678 9.73223C12.7989 9.26339 12.163 9 11.5 9H10.5C10.3674 9 10.2402 8.94732 10.1464 8.85355C10.0527 8.75979 10 8.63261 10 8.5V7.5C10 7.36739 10.0527 7.24021 10.1464 7.14645C10.2402 7.05268 10.3674 7 10.5 7H11.5C12.163 7 12.7989 6.73661 13.2678 6.26777C13.7366 5.79893 14 5.16304 14 4.5C14 3.83696 13.7366 3.20107 13.2678 2.73223C12.7989 2.26339 12.163 2 11.5 2C10.837 2 10.2011 2.26339 9.73223 2.73223C9.26339 3.20107 9 3.83696 9 4.5V5.5C9 5.63261 8.94732 5.75979 8.85355 5.85355C8.75979 5.94732 8.63261 6 8.5 6H7.5C7.36739 6 7.24021 5.94732 7.14645 5.85355C7.05268 5.75979 7 5.63261 7 5.5V4.5C7 4.1717 6.93534 3.84661 6.8097 3.54329C6.68406 3.23998 6.49991 2.96438 6.26777 2.73223C6.03562 2.50009 5.76002 2.31594 5.45671 2.1903C5.15339 2.06466 4.8283 2 4.5 2ZM9 7.5C9 7.36739 8.94732 7.24021 8.85355 7.14645C8.75979 7.05268 8.63261 7 8.5 7H7.5C7.36739 7 7.24021 7.05268 7.14645 7.14645C7.05268 7.24021 7 7.36739 7 7.5V8.5C7 8.63261 7.05268 8.75979 7.14645 8.85355C7.24021 8.94732 7.36739 9 7.5 9H8.5C8.63261 9 8.75979 8.94732 8.85355 8.85355C8.94732 8.75979 9 8.63261 9 8.5V7.5ZM6 4.5V5.5C6 5.63261 5.94732 5.75979 5.85355 5.85355C5.75979 5.94732 5.63261 6 5.5 6H4.5C4.20333 6 3.91332 5.91203 3.66664 5.7472C3.41997 5.58238 3.22771 5.34811 3.11418 5.07403C3.00065 4.79994 2.97094 4.49834 3.02882 4.20736C3.0867 3.91639 3.22956 3.64912 3.43934 3.43934C3.64912 3.22956 3.91639 3.0867 4.20736 3.02882C4.49834 2.97094 4.79994 3.00065 5.07403 3.11418C5.34811 3.22771 5.58238 3.41997 5.7472 3.66664C5.91203 3.91332 6 4.20333 6 4.5ZM11.5 6H10.5C10.3674 6 10.2402 5.94732 10.1464 5.85355C10.0527 5.75979 10 5.63261 10 5.5V4.5C10 4.20333 10.088 3.91332 10.2528 3.66664C10.4176 3.41997 10.6519 3.22771 10.926 3.11418C11.2001 3.00065 11.5017 2.97094 11.7926 3.02882C12.0836 3.0867 12.3509 3.22956 12.5607 3.43934C12.7704 3.64912 12.9133 3.91639 12.9712 4.20736C13.0291 4.49834 12.9994 4.79994 12.8858 5.07403C12.7723 5.34811 12.58 5.58238 12.3334 5.7472C12.0867 5.91203 11.7967 6 11.5 6ZM6 11.5V10.5C6 10.3674 5.94732 10.2402 5.85355 10.1464C5.75979 10.0527 5.63261 10 5.5 10H4.5C4.20333 10 3.91332 10.088 3.66664 10.2528C3.41997 10.4176 3.22771 10.6519 3.11418 10.926C3.00065 11.2001 2.97094 11.5017 3.02882 11.7926C3.0867 12.0836 3.22956 12.3509 3.43934 12.5607C3.64912 12.7704 3.91639 12.9133 4.20736 12.9712C4.49834 13.0291 4.79994 12.9994 5.07403 12.8858C5.34811 12.7723 5.58238 12.58 5.7472 12.3334C5.91203 12.0867 6 11.7967 6 11.5ZM11.5 10H10.5C10.3674 10 10.2402 10.0527 10.1464 10.1464C10.0527 10.2402 10 10.3674 10 10.5V11.5C10 11.7967 10.088 12.0867 10.2528 12.3334C10.4176 12.58 10.6519 12.7723 10.926 12.8858C11.2001 12.9994 11.5017 13.0291 11.7926 12.9712C12.0836 12.9133 12.3509 12.7704 12.5607 12.5607C12.7704 12.3509 12.9133 12.0836 12.9712 11.7926C13.0291 11.5017 12.9994 11.2001 12.8858 10.926C12.7723 10.6519 12.58 10.4176 12.3334 10.2528C12.0867 10.088 11.7967 10 11.5 10Z" fill="#9EA0A3"/>
</svg>
