<svg width="24" height="24" viewBox="0 0 24 24" fill="none" xmlns="http://www.w3.org/2000/svg">
<path d="M9.00004 2.25C9.00004 2.05109 9.07906 1.86032 9.21971 1.71967C9.36036 1.57902 9.55113 1.5 9.75004 1.5C9.94895 1.5 10.1397 1.57902 10.2804 1.71967C10.421 1.86032 10.5 2.05109 10.5 2.25V20.6895C10.5 20.8377 10.4561 20.9826 10.3737 21.1059C10.2914 21.2291 10.1744 21.3252 10.0375 21.3821C9.90062 21.4389 9.74995 21.4538 9.60455 21.4251C9.45914 21.3963 9.32551 21.3251 9.22054 21.2205L2.24854 14.25C2.17869 14.1803 2.12328 14.0976 2.08547 14.0065C2.04766 13.9153 2.0282 13.8177 2.0282 13.719C2.0282 13.6203 2.04766 13.5227 2.08547 13.4316C2.12328 13.3404 2.17869 13.2577 2.24854 13.188H2.25154C2.39212 13.0479 2.58253 12.9692 2.78104 12.9692C2.97954 12.9692 3.16995 13.0479 3.31054 13.188L9.00004 18.882V2.25ZM13.5 3.3105C13.5004 3.16241 13.5445 3.01772 13.627 2.89469C13.7094 2.77166 13.8264 2.67578 13.9633 2.61915C14.1001 2.56253 14.2506 2.54768 14.3959 2.57648C14.5412 2.60528 14.6747 2.67644 14.7795 2.781L21.7515 9.75C21.8214 9.81967 21.8768 9.90243 21.9146 9.99355C21.9524 10.0847 21.9719 10.1823 21.9719 10.281C21.9719 10.3797 21.9524 10.4773 21.9146 10.5685C21.8768 10.6596 21.8214 10.7423 21.7515 10.812H21.7485C21.608 10.9521 21.4175 11.0308 21.219 11.0308C21.0205 11.0308 20.8301 10.9521 20.6895 10.812L15 5.121V21.75C15 21.9489 14.921 22.1397 14.7804 22.2803C14.6397 22.421 14.449 22.5 14.25 22.5C14.0511 22.5 13.8604 22.421 13.7197 22.2803C13.5791 22.1397 13.5 21.9489 13.5 21.75V3.3105Z" fill="#9EA0A3"/>
</svg>
