<svg width="24" height="24" viewBox="0 0 24 24" fill="none" xmlns="http://www.w3.org/2000/svg">
<path d="M19.633 7.10999L13.159 3.08999C12.8048 2.86884 12.3956 2.75159 11.978 2.75159C11.5604 2.75159 11.1512 2.86884 10.797 3.08999L4.32401 7.13299C3.95596 7.36509 3.66385 7.69979 3.48367 8.09585C3.3035 8.49192 3.24313 8.93204 3.31001 9.36199L4.98001 19.389C5.06828 19.9139 5.3414 20.3899 5.75001 20.7311C6.15862 21.0722 6.67577 21.2559 7.20801 21.249H16.79C17.3224 21.2561 17.8398 21.0725 18.2486 20.7314C18.6574 20.3902 18.9307 19.9141 19.019 19.389L20.689 9.36199C20.7562 8.92413 20.6914 8.47619 20.503 8.07529C20.3146 7.67438 20.011 7.33868 19.631 7.11099M8.63601 16.459H15.321" stroke="#9EA0A3" stroke-width="1.5" stroke-linecap="round" stroke-linejoin="round"/>
</svg>
