<svg width="16" height="16" viewBox="0 0 16 16" fill="none" xmlns="http://www.w3.org/2000/svg">
<path d="M8.00004 13.3333C9.41453 13.3333 10.7711 12.7714 11.7713 11.7712C12.7715 10.7711 13.3334 9.4145 13.3334 8.00001C13.3334 6.58552 12.7715 5.22897 11.7713 4.22877C10.7711 3.22858 9.41453 2.66668 8.00004 2.66668C6.58555 2.66668 5.229 3.22858 4.2288 4.22877C3.22861 5.22897 2.66671 6.58552 2.66671 8.00001C2.66671 9.4145 3.22861 10.7711 4.2288 11.7712C5.229 12.7714 6.58555 13.3333 8.00004 13.3333ZM8.00004 1.33334C8.87552 1.33334 9.74243 1.50578 10.5513 1.84081C11.3601 2.17584 12.095 2.66691 12.7141 3.28596C13.3331 3.90502 13.8242 4.63995 14.1592 5.44879C14.4943 6.25762 14.6667 7.12453 14.6667 8.00001C14.6667 9.76812 13.9643 11.4638 12.7141 12.7141C11.4638 13.9643 9.76815 14.6667 8.00004 14.6667C4.31337 14.6667 1.33337 11.6667 1.33337 8.00001C1.33337 6.2319 2.03575 4.53621 3.286 3.28596C4.53624 2.03572 6.23193 1.33334 8.00004 1.33334ZM8.33337 4.66668V8.16668L11.3334 9.94668L10.8334 10.7667L7.33337 8.66668V4.66668H8.33337Z" fill="#9EA0A3"/>
</svg>
