<svg width="24" height="24" viewBox="0 0 24 24" fill="none" xmlns="http://www.w3.org/2000/svg">
<path fill-rule="evenodd" clip-rule="evenodd" d="M6.75 3C5.75544 3 4.80161 3.39509 4.09835 4.09835C3.39509 4.80161 3 5.75544 3 6.75C3 7.74456 3.39509 8.69839 4.09835 9.40165C4.80161 10.1049 5.75544 10.5 6.75 10.5H8.25C8.44891 10.5 8.63968 10.579 8.78033 10.7197C8.92098 10.8603 9 11.0511 9 11.25V12.75C9 12.9489 8.92098 13.1397 8.78033 13.2803C8.63968 13.421 8.44891 13.5 8.25 13.5H6.75C5.75544 13.5 4.80161 13.8951 4.09835 14.5983C3.39509 15.3016 3 16.2554 3 17.25C3 18.2446 3.39509 19.1984 4.09835 19.9017C4.80161 20.6049 5.75544 21 6.75 21C7.24246 21 7.73009 20.903 8.18506 20.7145C8.64003 20.5261 9.05343 20.2499 9.40165 19.9017C9.74987 19.5534 10.0261 19.14 10.2145 18.6851C10.403 18.2301 10.5 17.7425 10.5 17.25V15.75C10.5 15.5511 10.579 15.3603 10.7197 15.2197C10.8603 15.079 11.0511 15 11.25 15H12.75C12.9489 15 13.1397 15.079 13.2803 15.2197C13.421 15.3603 13.5 15.5511 13.5 15.75V17.25C13.5 18.2446 13.8951 19.1984 14.5983 19.9017C15.3016 20.6049 16.2554 21 17.25 21C18.2446 21 19.1984 20.6049 19.9017 19.9017C20.6049 19.1984 21 18.2446 21 17.25C21 16.2554 20.6049 15.3016 19.9017 14.5983C19.1984 13.8951 18.2446 13.5 17.25 13.5H15.75C15.5511 13.5 15.3603 13.421 15.2197 13.2803C15.079 13.1397 15 12.9489 15 12.75V11.25C15 11.0511 15.079 10.8603 15.2197 10.7197C15.3603 10.579 15.5511 10.5 15.75 10.5H17.25C18.2446 10.5 19.1984 10.1049 19.9017 9.40165C20.6049 8.69839 21 7.74456 21 6.75C21 5.75544 20.6049 4.80161 19.9017 4.09835C19.1984 3.39509 18.2446 3 17.25 3C16.2554 3 15.3016 3.39509 14.5983 4.09835C13.8951 4.80161 13.5 5.75544 13.5 6.75V8.25C13.5 8.44891 13.421 8.63968 13.2803 8.78033C13.1397 8.92098 12.9489 9 12.75 9H11.25C11.0511 9 10.8603 8.92098 10.7197 8.78033C10.579 8.63968 10.5 8.44891 10.5 8.25V6.75C10.5 6.25754 10.403 5.76991 10.2145 5.31494C10.0261 4.85997 9.74987 4.44657 9.40165 4.09835C9.05343 3.75013 8.64003 3.47391 8.18506 3.28545C7.73009 3.097 7.24246 3 6.75 3ZM13.5 11.25C13.5 11.0511 13.421 10.8603 13.2803 10.7197C13.1397 10.579 12.9489 10.5 12.75 10.5H11.25C11.0511 10.5 10.8603 10.579 10.7197 10.7197C10.579 10.8603 10.5 11.0511 10.5 11.25V12.75C10.5 12.9489 10.579 13.1397 10.7197 13.2803C10.8603 13.421 11.0511 13.5 11.25 13.5H12.75C12.9489 13.5 13.1397 13.421 13.2803 13.2803C13.421 13.1397 13.5 12.9489 13.5 12.75V11.25ZM9 6.75V8.25C9 8.44891 8.92098 8.63968 8.78033 8.78033C8.63968 8.92098 8.44891 9 8.25 9H6.75C6.30499 9 5.86998 8.86804 5.49997 8.62081C5.12996 8.37357 4.84157 8.02217 4.67127 7.61104C4.50097 7.1999 4.45642 6.7475 4.54323 6.31105C4.63005 5.87459 4.84434 5.47368 5.15901 5.15901C5.47368 4.84434 5.87459 4.63005 6.31105 4.54323C6.7475 4.45642 7.1999 4.50097 7.61104 4.67127C8.02217 4.84157 8.37357 5.12996 8.62081 5.49997C8.86804 5.86998 9 6.30499 9 6.75ZM17.25 9H15.75C15.5511 9 15.3603 8.92098 15.2197 8.78033C15.079 8.63968 15 8.44891 15 8.25V6.75C15 6.30499 15.132 5.86998 15.3792 5.49997C15.6264 5.12996 15.9778 4.84157 16.389 4.67127C16.8001 4.50097 17.2525 4.45642 17.689 4.54323C18.1254 4.63005 18.5263 4.84434 18.841 5.15901C19.1557 5.47368 19.37 5.87459 19.4568 6.31105C19.5436 6.7475 19.499 7.1999 19.3287 7.61104C19.1584 8.02217 18.87 8.37357 18.5 8.62081C18.13 8.86804 17.695 9 17.25 9ZM9 17.25V15.75C9 15.5511 8.92098 15.3603 8.78033 15.2197C8.63968 15.079 8.44891 15 8.25 15H6.75C6.30499 15 5.86998 15.132 5.49997 15.3792C5.12996 15.6264 4.84157 15.9778 4.67127 16.389C4.50097 16.8001 4.45642 17.2525 4.54323 17.689C4.63005 18.1254 4.84434 18.5263 5.15901 18.841C5.47368 19.1557 5.87459 19.37 6.31105 19.4568C6.7475 19.5436 7.1999 19.499 7.61104 19.3287C8.02217 19.1584 8.37357 18.87 8.62081 18.5C8.86804 18.13 9 17.695 9 17.25ZM17.25 15H15.75C15.5511 15 15.3603 15.079 15.2197 15.2197C15.079 15.3603 15 15.5511 15 15.75V17.25C15 17.695 15.132 18.13 15.3792 18.5C15.6264 18.87 15.9778 19.1584 16.389 19.3287C16.8001 19.499 17.2525 19.5436 17.689 19.4568C18.1254 19.37 18.5263 19.1557 18.841 18.841C19.1557 18.5263 19.37 18.1254 19.4568 17.689C19.5436 17.2525 19.499 16.8001 19.3287 16.389C19.1584 15.9778 18.87 15.6264 18.5 15.3792C18.13 15.132 17.695 15 17.25 15Z" fill="#9EA0A3"/>
</svg>
