<svg width="24" height="24" viewBox="0 0 24 24" fill="none" xmlns="http://www.w3.org/2000/svg">
<g clip-path="url(#clip0_6_79)">
<path d="M1.11523 0.063997C0.968157 0.000655919 0.805463 -0.0170921 0.648195 0.0130494C0.490927 0.0431908 0.346324 0.119835 0.233094 0.233064C0.119865 0.346293 0.0432213 0.490897 0.0130799 0.648165C-0.0170616 0.805432 0.000686437 0.968127 0.0640275 1.1152L9.66403 23.5152C9.72793 23.6643 9.83568 23.7905 9.97298 23.877C10.1103 23.9635 10.2706 24.0062 10.4328 23.9994C10.5949 23.9927 10.7511 23.9368 10.8807 23.8391C11.0103 23.7415 11.1072 23.6068 11.1584 23.4528L14.232 14.232L23.4528 11.16C23.6073 11.1091 23.7426 11.0122 23.8406 10.8825C23.9386 10.7527 23.9948 10.5961 24.0016 10.4336C24.0084 10.2711 23.9654 10.1104 23.8785 9.97286C23.7917 9.83537 23.6649 9.72762 23.5152 9.664L1.11523 0.063997Z" fill="#5353CB"/>
</g>
<defs>
<clipPath id="clip0_6_79">
<rect width="24" height="24" fill="white"/>
</clipPath>
</defs>
</svg>
